<svg width="210" height="140" viewBox="0 0 210 140" fill="none" xmlns="http://www.w3.org/2000/svg">
    <g clip-path="url(#clip0_1036_20)">
        <path d="M80.2977 62.2818H104.623L113.7 43.5936L128.14 100L134.839 61.7536L142.44 61.7536L147.725 75.129L154.502 46.9025L163.75 85.1955L169.75 61.2565H199.578C199.578 61.2565 205.873 35.2049 191.977 23.3364C175.237 9.02897 160.191 14.5438 145.611 29.2396L137.824 37.5506L130.767 30.2959C130.767 30.2959 118.426 14.0622 103.426 16.3303C89.5771 18.4274 71.5623 35.0495 80.2977 62.2818Z" fill="#538BC8" fill-opacity="0.5"/>
        <path d="M138.007 125L137.338 124.611C137.292 124.579 131.237 121.122 122.429 114.704C114.305 108.801 102.103 99.0817 90.0569 86.3874C84.5786 80.6243 80.3609 74.5653 77.4973 68.3972L79.6139 67.4159C82.3686 73.3503 86.4462 79.2069 91.7377 84.783C112.733 106.901 134.459 120.203 137.992 122.29C141.556 120.171 163.282 106.87 184.246 84.783C189.958 78.7552 194.253 72.4469 196.992 66.0141C199.451 60.2822 200.681 54.4412 200.65 48.6781C200.619 38.8964 196.852 29.3328 190.316 22.4483C184.729 16.5606 177.289 13.3208 169.352 13.3208C161.415 13.3208 153.96 16.5606 148.388 22.4483L137.992 33.4137L127.596 22.4483C122.008 16.5606 114.569 13.3208 106.632 13.3208C98.6945 13.3208 91.2397 16.5606 85.668 22.4483C81.6993 26.6226 78.6956 31.8561 76.9837 37.5725C75.0071 44.1611 74.8048 51.0145 76.3767 57.9769L74.1044 58.4909C72.4392 51.1391 72.6571 43.8807 74.7581 36.9027C76.579 30.8281 79.7695 25.2831 83.9872 20.844C90.0102 14.489 98.0564 11 106.647 11C115.238 11 123.285 14.5046 129.308 20.844L138.007 30.0182L146.707 20.844C152.73 14.489 160.777 11 169.368 11C177.958 11 186.005 14.5046 192.028 20.844C198.953 28.1491 202.953 38.289 203 48.6625C203.015 54.7527 201.724 60.9052 199.156 66.9331C196.292 73.6151 191.857 80.157 185.942 86.3874C173.896 99.0817 161.679 108.801 153.571 114.704C144.762 121.122 138.708 124.579 138.646 124.611L138.007 125Z" fill="#2D67A9" fill-opacity="0.5"/>
        <path d="M128.708 104L113.685 45.6489L105.178 63.6613H70V62.4244H104.385L114.043 42L128.443 97.9701L134.493 61.2803H143.031L147.759 73.1546L154.679 44.4584L163.948 82.6324L169.453 60.7855H206V62.0224H170.418L163.917 87.812L154.679 49.7461L148.054 77.2519L142.191 62.5172H135.535L128.708 104Z" fill="#FF0004" fill-opacity="0.5"/>
        <path d="M52.5646 24.5616C47.5487 35.4258 52.2897 48.2991 63.1539 53.315C74.0181 58.3308 86.8914 53.5899 91.9072 42.7257C96.9231 31.8616 92.1821 18.9883 81.3179 13.9724C70.4538 8.95654 57.5805 13.6975 52.5646 24.5616Z" fill="#538BC8" fill-opacity="0.1" stroke="#2D67A9" stroke-width="2.66667" stroke-linejoin="round"/>
        <path d="M29.6357 47.5561C28.7721 47.8744 28.3297 48.8325 28.6476 49.6963C28.9659 50.5599 29.9241 51.0023 30.7878 50.6844L29.6357 47.5561ZM30.7878 50.6844L52.9058 42.5389L51.7537 39.4105L29.6357 47.5561L30.7878 50.6844Z" fill="#2D67A9" fill-opacity="0.6"/>
        <path d="M31.5791 48.9722L31.3486 48.3462L50.9644 41.1221L51.195 41.748L31.5791 48.9722Z" stroke="#2D67A9" stroke-opacity="0.6" stroke-width="2.66667"/>
        <path d="M27.8492 96.4826L32.719 89.5048C33.1529 88.8831 32.6657 88.0393 31.9103 88.1042L23.4325 88.8327L18.2718 82.3929C17.8171 81.8255 16.9092 82.0108 16.7113 82.7114L14.3986 90.8966L6.30035 93.9661C5.60134 94.231 5.51406 95.1835 6.15357 95.5678L13.2319 99.8219L13.3769 108.079C13.39 108.825 14.2585 109.226 14.8375 108.753L21.5449 103.274L29.7898 105.364C30.4954 105.543 31.1098 104.849 30.8458 104.172L27.8492 96.4826Z" fill="#2D67A9" fill-opacity="0.2" stroke="#C7C733" stroke-opacity="0.1" stroke-width="2.66667" stroke-linecap="round" stroke-linejoin="round"/>
        <path d="M88.8492 105.483L93.719 98.5048C94.1529 97.8831 93.6657 97.0393 92.9103 97.1042L84.4325 97.8327L79.2718 91.3929C78.8171 90.8255 77.9092 91.0108 77.7113 91.7114L75.3986 99.8966L67.3004 102.966C66.6013 103.231 66.5141 104.184 67.1536 104.568L74.2319 108.822L74.3769 117.079C74.39 117.825 75.2585 118.226 75.8375 117.753L82.5449 112.274L90.7898 114.364C91.4954 114.543 92.1098 113.849 91.8458 113.172L88.8492 105.483Z" fill="#2D67A9" fill-opacity="0.2" stroke="#2D67A9" stroke-opacity="0.3" stroke-width="2.66667" stroke-linecap="round" stroke-linejoin="round"/>
        <path d="M52.3868 87.411L57.8664 93.9208C58.3546 94.5009 59.2958 94.2487 59.4286 93.5022L60.9191 85.1247L68.4751 81.8065C69.1409 81.5142 69.1969 80.5893 68.5714 80.2168L61.2637 75.8644L60.3948 67.2477C60.3198 66.5039 59.4223 66.1731 58.8856 66.6913L52.9445 72.4275L44.9312 70.4304C44.2072 70.25 43.5954 70.9852 43.9023 71.6668L47.4581 79.5636L43.3057 86.9868C42.9504 87.622 43.4614 88.395 44.184 88.3153L52.3868 87.411Z" fill="#2D67A9" fill-opacity="0.2" stroke="#C7C733" stroke-opacity="0.1" stroke-width="2.66667" stroke-linecap="round" stroke-linejoin="round"/>
    </g>
    <defs>
        <clipPath id="clip0_1036_20">
            <rect width="210" height="140" fill="white"/>
        </clipPath>
    </defs>
</svg>
