<svg width="120" height="140" viewBox="0 0 120 140" fill="none" xmlns="http://www.w3.org/2000/svg">
	<path d="M84 47.25H36C16.1496 47.25 0 30.7639 0 10.5V5.25H34.2857V10.5C34.2857 24.9741 45.8212 36.75 60 36.75C74.1787 36.75 85.7143 24.9741 85.7143 10.5V5.25H120V10.5C120 30.7639 103.85 47.25 84 47.25Z" fill="#538BC8"/>
	<path d="M85.7143 5.25V10.5C85.7143 24.9741 74.1787 36.75 60 36.75V47.25H84C103.85 47.25 120 30.7639 120 10.5V5.25H85.7143Z" fill="#2D67A9" fill-opacity="0.5"/>
	<path d="M108 73.5C108 79.2988 103.395 84 97.7143 84H22.2857C16.6053 84 12 79.2988 12 73.5C12 67.7012 16.6053 63 22.2857 63H97.7143C103.395 63 108 67.7012 108 73.5Z" fill="#538BC8"/>
	<path d="M94.2857 105C94.2857 110.799 89.6804 115.5 83.9999 115.5H35.9999C30.3195 115.5 25.7142 110.799 25.7142 105C25.7142 99.2012 30.3195 94.5 35.9999 94.5H83.9999C89.6804 94.5 94.2857 99.2012 94.2857 105Z" fill="#538BC8"/>
	<path d="M97.7143 63H60V84H84H97.7143C103.395 84 108 79.2988 108 73.5C108 67.7012 103.395 63 97.7143 63Z" fill="#2D67A9"/>
	<path d="M60 115.5H84C89.6804 115.5 94.2857 110.799 94.2857 105C94.2857 99.2012 89.6804 94.5 84 94.5H60V115.5Z" fill="#2D67A9"/>
	<path d="M65.1429 17.5H54.8572V140H65.1429V17.5Z" fill="#2D67A9"/>
	<path d="M60 21C65.6806 21 70.2857 16.299 70.2857 10.5C70.2857 4.70101 65.6806 0 60 0C54.3194 0 49.7143 4.70101 49.7143 10.5C49.7143 16.299 54.3194 21 60 21Z" fill="#538BC8"/>
	<path d="M65.1429 17.5H60V140H65.1429V17.5Z" fill="#1F677B"/>
	<path d="M60 0V21C65.6804 21 70.2857 16.2988 70.2857 10.5C70.2857 4.70121 65.6804 0 60 0Z" fill="#2D67A9"/>
</svg>
